# xmcd
#
# Track frame offsets:
#	150
#	15376
#	29648
#	44356
#	60126
#	74507
#	88027
#	102903
#	116859
#	125746
#	140263
#	152947
#	167974
#	179423
#	193718
#	208511
#	218899
#	233809
#	245958
#	260893
#
# Disc length: 3666 seconds
#
# Revision: 1
# Processed by: cddbd v1.5.2PL0 Copyright (c) Steve Scherf et al.
# Submitted via: MusicManager 7.2.0.0 
#
DISCID=330e5014
DTITLE=Fitzgerald, Ella  - De Legendes Van de Jazz vol.1 cd1
DYEAR=2007
DGENRE=Jazz
TTITLE0=Two Litte Men In A Flying Saucer - 1951
TTITLE1=Because Of Rain - 1951
TTITLE2=The Hot Canary - 1951
TTITLE3=Even As You And I - 1951
TTITLE4=Do You Really Love Me? - 1951
TTITLE5=Love You Madly - 1951
TTITLE6=Mixed Emotions - 1951
TTITLE7=Smooth Sailing - 1951
TTITLE8=Cone On - A My House - 1951
TTITLE9=I Don't Want to Take A Chance - 1951
TTITLE10=There Nevver Was A Baby - 1951
TTITLE11=Give A Little, Get A Little - 1951
TTITLE12=Necessary Evil (With Louis Armstrong) - 1951
TTITLE13=Oops! (With Louis Armstrong) - 1951
TTITLE14=Would You Like To Take A Walk? (With Louis Armstrong) - 1951
TTITLE15=Who Walks InWhen I Walk Out (With Louis Armstrong) - 1951
TTITLE16=Baby Doll - 1951
TTITLE17=What Does It Take - 1951
TTITLE18=Lady Bug - 1951
TTITLE19=Lazy Day - 1951
EXTD=YEAR: 2005
EXTT0=
EXTT1=
EXTT2=
EXTT3=
EXTT4=
EXTT5=
EXTT6=
EXTT7=
EXTT8=
EXTT9=
EXTT10=
EXTT11=
EXTT12=
EXTT13=
EXTT14=
EXTT15=
EXTT16=
EXTT17=
EXTT18=
EXTT19=
PLAYORDER=
